<?xml version="1.0" standalone="no"?>
<!DOCTYPE svg PUBLIC "-//W3C//DTD SVG 20010904//EN"
 "http://www.w3.org/TR/2001/REC-SVG-20010904/DTD/svg10.dtd">
<svg version="1.0" xmlns="http://www.w3.org/2000/svg"
 width="512.000000pt" height="512.000000pt" viewBox="0 0 512.000000 512.000000"
 preserveAspectRatio="xMidYMid meet">
<metadata>
Created by potrace 1.14, written by Peter Selinger 2001-2017
</metadata>
<g transform="translate(0.000000,512.000000) scale(0.100000,-0.100000)"
fill="#000000" stroke="none">
<path d="M2125 5108 c-99 -12 -295 -62 -396 -102 -486 -191 -887 -565 -1139
-1061 -57 -114 -138 -326 -154 -407 -27 -137 -36 -185 -43 -244 -10 -85 -11
-404 -1 -499 37 -353 186 -737 402 -1030 252 -343 611 -603 966 -700 218 -60
397 -199 601 -467 102 -134 198 -249 239 -286 138 -127 302 -200 550 -246 124
-22 165 -28 317 -41 229 -20 629 -29 638 -15 4 6 14 9 23 6 10 -3 116 -8 237
-11 l221 -5 -1 34 c0 19 -2 36 -5 39 -3 2 -50 7 -105 10 -55 4 -111 9 -125 11
-14 3 -38 8 -55 12 -16 3 -62 21 -102 40 -76 36 -121 76 -299 266 -96 102
-231 211 -316 254 -71 36 -144 56 -251 68 -165 20 -261 40 -392 82 -112 36
-336 142 -343 162 -2 8 17 9 65 4 82 -8 222 -8 319 1 137 12 355 65 464 114
287 128 469 252 675 458 55 55 110 114 123 130 12 17 46 62 75 100 29 39 70
99 92 135 22 36 46 75 53 85 21 34 100 199 136 287 58 140 112 348 133 513 10
79 10 388 0 490 -41 415 -258 880 -564 1205 -191 203 -405 350 -708 485 -46
21 -200 75 -230 81 -11 2 -40 8 -65 14 -117 28 -230 37 -394 33 -224 -6 -215
-6 -406 -1 -91 3 -196 1 -235 -4z m164 -73 c-2 -1 -40 -17 -84 -34 -117 -45
-263 -122 -378 -200 -257 -173 -477 -402 -645 -669 -29 -45 -52 -87 -52 -92 0
-5 -4 -11 -9 -15 -11 -6 17 97 50 190 86 239 183 395 337 543 42 39 79 72 82
72 4 0 18 9 30 20 93 80 344 169 515 183 63 5 158 6 154 2z m766 -11 c337 -48
619 -256 792 -584 58 -111 143 -328 143 -365 0 -5 -17 19 -38 55 -113 193
-273 381 -462 543 -133 113 -398 266 -588 338 l-77 29 95 -5 c52 -3 113 -8
135 -11z m-355 -30 c228 -62 433 -210 576 -414 87 -124 208 -402 239 -549 36
-167 41 -194 51 -276 2 -22 6 -56 9 -75 2 -19 7 -53 9 -75 29 -228 29 -920 1
-1151 -12 -96 -26 -202 -29 -220 -2 -10 -7 -39 -11 -64 -12 -81 -67 -283 -100
-371 -156 -409 -433 -651 -822 -719 -63 -11 -82 -11 -155 5 -421 91 -690 361
-836 840 -24 79 -68 292 -77 375 -3 30 -8 66 -10 80 -12 72 -23 194 -30 345
-5 105 -5 543 0 620 11 171 17 239 31 345 17 139 27 198 48 295 32 153 110
363 178 485 123 217 316 397 514 480 97 40 205 68 269 69 28 1 93 -11 145 -25z
m1304 -2966 c-77 -337 -263 -641 -477 -782 -111 -74 -270 -140 -382 -160 -16
-3 -39 -8 -50 -10 -74 -15 -262 -30 -252 -20 3 3 11 7 19 8 7 2 27 8 43 15 17
6 44 17 60 23 17 6 77 36 135 65 307 158 575 395 771 683 49 72 122 195 132
223 14 38 14 13 1 -45z m-2736 -242 c80 -112 98 -132 222 -256 122 -122 148
-145 248 -217 133 -96 293 -177 462 -234 l85 -30 -85 6 c-243 17 -436 76 -597
182 -194 128 -354 359 -441 633 -47 152 -47 162 2 78 24 -43 71 -116 104 -162z
m1067 -810 c129 -1 131 -1 176 -32 77 -53 232 -194 212 -194 -35 0 -184 35
-278 65 -92 31 -258 105 -326 148 -33 21 -21 29 34 21 28 -4 111 -8 182 -8z"/>
</g>
</svg>
